<?xml version="1.0" encoding="UTF-8" standalone="no"?>
<svg width="36px" height="29px" viewBox="0 0 36 29" version="1.1" xmlns="http://www.w3.org/2000/svg" xmlns:xlink="http://www.w3.org/1999/xlink">
    <!-- Generator: Sketch 3.6.1 (26313) - http://www.bohemiancoding.com/sketch -->
    <title>spacecraftpinned</title>
    <desc>Created with Sketch.</desc>
    <defs>
        <linearGradient x1="-5.70663362%" y1="-34.6020577%" x2="69.1261634%" y2="100%" id="linearGradient-1">
            <stop stop-color="#F5BF6F" offset="0%"></stop>
            <stop stop-color="#DD2714" offset="100%"></stop>
        </linearGradient>
    </defs>
    <g id="Page-1" stroke="none" stroke-width="1" fill="none" fill-rule="evenodd">
        <g id="spacecraftpinned" transform="translate(0.000000, -1.000000)">
            <path d="M0,31 L0,0 L36,0 L36,31 L0,31 Z" id="Shape"></path>
            <g id="Group" transform="translate(0.000000, 6.000000)" fill="url(#linearGradient-1)">
                <path d="M28.5,7.71875 C31.07332,7.933 33.41106,9.2896 34.84375,11.4375 L35.1875,12 L34.84375,12.5625 C33.41106,14.7104 31.07332,16.06699 28.5,16.28125 L20.46875,16.96875 L16.125,21.28125 C14.38748,23.01989 12.02028,24 9.5625,24 L6,24 L5,24 L5,23 L5,18 L1.01020732,18.0073929 L3,15 L4,15 L4,9 L3,9 L0.88280317,6.04343405 L5,6 L5,1 L5,0 L6,0 L9.5625,0 C10.60942,0 11.63978,0.17791 12.61207,0.51651 L12.42572,0.70286 L11.02572,2.10286 C10.58555,2.05405 10.07629,2 9.5625,2 L7,2 L7,6 L7,9 L6,9 L6,15 L7,15 L7,16 L7,17 L7,22 L9.5625,22 C11.49072,22 13.35627,21.23836 14.71875,19.875 L17.5625,17 L13,17 L13,15 L19.90625,15 L28.3125,14.3125 C30.00142,14.17188 31.4639,13.26182 32.5625,12 C31.4639,10.73818 30.00141,9.82812 28.3125,9.6875 L23.80671,9.31484 C24.24363,8.72822 24.58443,8.0849 24.83583,7.40509 L28.5,7.71875 Z M29,11 L29,13 L27,13 L27,11 L29,11 Z" id="Shape"></path>
            </g>
            <g id="Group" transform="translate(12.000000, 1.000000)" fill="#000000">
                <path d="M15.8372633,5.30068447 L11.0335409,0.264364653 L7.42571,4.30286 C5.82571,4.20286 4.22571,4.70286 3.02571,5.90286 L2.32571,6.60286 L5.22571,9.50286 L0.32571,14.50286 L0.32571,15.90286 L1.72571,15.90286 L6.62571,11.00286 L9.62571,13.90286 L10.32571,13.20286 C11.52571,12.00286 12.02571,10.40286 11.92571,8.80286 L15.8372633,5.30068447 Z M9.82571,8.70286 C10.02571,9.40286 9.92571,10.30286 9.52571,11.00286 L5.22571,6.70286 C5.92571,6.30286 6.82571,6.20286 7.52571,6.40286 L8.22571,6.60286 L11.3250589,3.30879931 L12.8128802,4.92988596 L9.62571,8.00286 L9.82571,8.70286 Z" id="Shape"></path>
            </g>
        </g>
    </g>
</svg>