<svg x="0" y="0" version="1.1" xmlns="http://www.w3.org/2000/svg" xmlns:xlink="http://www.w3.org/1999/xlink" viewBox="0 0 32 32"><g fill="none" stroke="none" stroke-width="1" stroke-linecap="butt" stroke-linejoin="miter" stroke-miterlimit="10" stroke-dasharray="" stroke-dashoffset="0" font-family="none" font-weight="normal" font-size="12" text-anchor="start"><g><g><path d="M0,32l0,-32l32,0l0,32z" fill="none" font-family="sans-serif"></path><g fill="#e74c3c" font-family="Bitstream Vera Sans"><path d="M21.83583,11.40509l3.66417,0.31366c2.57332,0.21425 4.91106,1.57085 6.34375,3.71875l0.34375,0.5625l-0.34375,0.5625c-1.43269,2.1479 -3.77043,3.50449 -6.34375,3.71875l-8.03125,0.6875l-4.34375,4.3125c-1.73752,1.73864 -4.10472,2.71875 -6.5625,2.71875l-3.5625,0l-1,0l0,-1l0,-5l-2,0l0,-3l1,0l0,-6l-1,0l0,-3l2,0l0,-5l0,-1l1,0l3.5625,0c1.04692,0 2.07728,0.17791 3.04957,0.51651l-0.18635,0.18635l-1.4,1.4l0.05628,0.05628c-0.49645,-0.10509 -1.00571,-0.15914 -1.5195,-0.15914l-2.5625,0l0,4l0,3l-1,0l0,6l1,0l0,1l0,1l0,5l2.5625,0c1.92822,0 3.79377,-0.76164 5.15625,-2.125l2.84375,-2.875l-4.5625,0l0,-2l6.90625,0l8.40625,-0.6875c1.68892,-0.14062 3.1514,-1.05068 4.25,-2.3125c-1.0986,-1.26182 -2.56109,-2.17188 -4.25,-2.3125l-4.50579,-0.37266c0.43692,-0.58662 0.77772,-1.22994 1.02912,-1.90975z M8,21l0,3l-2,0l0,-3z M26,15l0,2l-2,0l0,-2z"></path></g><g fill="#000000" font-family="sans-serif"><g><path d="M25.32571,4.50286l-5.6,-5.6l-3.3,4.4c-1.6,-0.1 -3.2,0.4 -4.4,1.6l-0.7,0.7l2.9,2.9l-4.9,5l0,1.4l1.4,0l4.9,-4.9l3,2.9l0.7,-0.7c1.2,-1.2 1.7,-2.8 1.6,-4.4z M18.82571,7.70286c0.2,0.7 0.1,1.6 -0.3,2.3l-4.3,-4.3c0.7,-0.4 1.6,-0.5 2.3,-0.3l0.7,0.2l2.7,-3.7l2.4,2.4l-3.7,2.7z"></path></g></g></g></g></g></svg>